<?xml version="1.0" encoding="utf-8"?>
<svg width="512" height="512" viewBox="0 0 512 512" xmlns="http://www.w3.org/2000/svg"
     xmlns:xlink="http://www.w3.org/1999/xlink">
  <defs>
    <svg xmlns="http://www.w3.org/2000/svg" xmlns:xlink="http://www.w3.org/1999/xlink" version="1.1" width="24" height="24" viewBox="0 0 24 24" id="dataCenters"><path d="M7,22H9V24H7V22M11,22H13V24H11V22M15,22H17V24H15V22M12,3C16.42,3 20,4.79 20,7C20,9.21 16.42,11 12,11C7.58,11 4,9.21 4,7C4,4.79 7.58,3 12,3M4,9C4,11.21 7.58,13 12,13C16.42,13 20,11.21 20,9V12C20,14.21 16.42,16 12,16C7.58,16 4,14.21 4,12V9M4,14C4,16.21 7.58,18 12,18C16.42,18 20,16.21 20,14V17C20,18.19 18.95,19.27 17.29,20H6.71C5.05,19.27 4,18.19 4,17V14Z" /></svg>
  </defs>
  <defs>
    <svg xmlns="http://www.w3.org/2000/svg" xmlns:xlink="http://www.w3.org/1999/xlink" version="1.1" width="24" height="24" viewBox="0 0 24 24" id="messageBridgeRoutes"><path d="M7,14V10.91C6.28,10.58 5.61,10.18 5,9.71V14H7M5,18H3V16H1V14H3V7H5V8.43C6.8,10 9.27,11 12,11C14.73,11 17.2,10 19,8.43V7H21V14H23V16H21V18H19V16H5V18M17,10.91V14H19V9.71C18.39,10.18 17.72,10.58 17,10.91M16,14V11.32C15.36,11.55 14.69,11.72 14,11.84V14H16M13,14V11.96L12,12L11,11.96V14H13M10,14V11.84C9.31,11.72 8.64,11.55 8,11.32V14H10Z" /></svg>
  </defs>
  <defs>
    <svg xmlns="http://www.w3.org/2000/svg" xmlns:xlink="http://www.w3.org/1999/xlink" version="1.1" width="24" height="24" viewBox="0 0 24 24" id="brokerConnections"><path d="M18,11H14.82C14.4,9.84 13.3,9 12,9C10.7,9 9.6,9.84 9.18,11H6C5.67,11 4,10.9 4,9V8C4,6.17 5.54,6 6,6H16.18C16.6,7.16 17.7,8 19,8A3,3 0 0,0 22,5A3,3 0 0,0 19,2C17.7,2 16.6,2.84 16.18,4H6C4.39,4 2,5.06 2,8V9C2,11.94 4.39,13 6,13H9.18C9.6,14.16 10.7,15 12,15C13.3,15 14.4,14.16 14.82,13H18C18.33,13 20,13.1 20,15V16C20,17.83 18.46,18 18,18H7.82C7.4,16.84 6.3,16 5,16A3,3 0 0,0 2,19A3,3 0 0,0 5,22C6.3,22 7.4,21.16 7.82,20H18C19.61,20 22,18.93 22,16V15C22,12.07 19.61,11 18,11M19,4A1,1 0 0,1 20,5A1,1 0 0,1 19,6A1,1 0 0,1 18,5A1,1 0 0,1 19,4M5,20A1,1 0 0,1 4,19A1,1 0 0,1 5,18A1,1 0 0,1 6,19A1,1 0 0,1 5,20Z" /></svg>
  </defs>
  <defs>
    <svg xmlns="http://www.w3.org/2000/svg" xmlns:xlink="http://www.w3.org/1999/xlink" version="1.1" width="24" height="24" viewBox="0 0 24 24" id="brokerConnectionNames"><path d="M15,12C15,10.7 14.16,9.6 13,9.18V6.82C14.16,6.4 15,5.3 15,4A3,3 0 0,0 12,1A3,3 0 0,0 9,4C9,5.3 9.84,6.4 11,6.82V9.19C9.84,9.6 9,10.7 9,12C9,13.3 9.84,14.4 11,14.82V17.18C9.84,17.6 9,18.7 9,20A3,3 0 0,0 12,23A3,3 0 0,0 15,20C15,18.7 14.16,17.6 13,17.18V14.82C14.16,14.4 15,13.3 15,12M12,3A1,1 0 0,1 13,4A1,1 0 0,1 12,5A1,1 0 0,1 11,4A1,1 0 0,1 12,3M12,21A1,1 0 0,1 11,20A1,1 0 0,1 12,19A1,1 0 0,1 13,20A1,1 0 0,1 12,21Z" /></svg>
  </defs>
  <defs>
    <svg xmlns="http://www.w3.org/2000/svg" xmlns:xlink="http://www.w3.org/1999/xlink" version="1.1" width="24" height="24" viewBox="0 0 24 24" id="webhooks"><path d="M18,6C18,7.82 16.76,9.41 15,9.86V17A5,5 0 0,1 10,22A5,5 0 0,1 5,17V12L10,17H7A3,3 0 0,0 10,20A3,3 0 0,0 13,17V9.86C11.23,9.4 10,7.8 10,5.97C10,3.76 11.8,2 14,2C16.22,2 18,3.79 18,6M14,8A2,2 0 0,0 16,6A2,2 0 0,0 14,4A2,2 0 0,0 12,6A2,2 0 0,0 14,8Z" /></svg>
  </defs>
  <defs>
    <svg xmlns="http://www.w3.org/2000/svg" xmlns:xlink="http://www.w3.org/1999/xlink" version="1.1" width="24" height="24" viewBox="0 0 24 24" id="stores"><path d="M12,18H6V14H12M21,14V12L20,7H4L3,12V14H4V20H14V14H18V20H20V14M20,4H4V6H20V4Z" /></svg>
  </defs>
  <defs>
    <svg xmlns="http://www.w3.org/2000/svg" xmlns:xlink="http://www.w3.org/1999/xlink" version="1.1" width="24" height="24" viewBox="0 0 24 24" id="eventUsers"><path d="M16,13C15.71,13 15.38,13 15.03,13.05C16.19,13.89 17,15 17,16.5V19H23V16.5C23,14.17 18.33,13 16,13M8,13C5.67,13 1,14.17 1,16.5V19H15V16.5C15,14.17 10.33,13 8,13M8,11A3,3 0 0,0 11,8A3,3 0 0,0 8,5A3,3 0 0,0 5,8A3,3 0 0,0 8,11M16,11A3,3 0 0,0 19,8A3,3 0 0,0 16,5A3,3 0 0,0 13,8A3,3 0 0,0 16,11Z" /></svg>
  </defs>
  <defs>
    <svg xmlns="http://www.w3.org/2000/svg" xmlns:xlink="http://www.w3.org/1999/xlink" version="1.1" width="24" height="24" viewBox="0 0 24 24" id="xsltResources"><path d="M12.87,15.07L10.33,12.56L10.36,12.53C12.1,10.59 13.34,8.36 14.07,6H17V4H10V2H8V4H1V6H12.17C11.5,7.92 10.44,9.75 9,11.35C8.07,10.32 7.3,9.19 6.69,8H4.69C5.42,9.63 6.42,11.17 7.67,12.56L2.58,17.58L4,19L9,14L12.11,17.11L12.87,15.07M18.5,10H16.5L12,22H14L15.12,19H19.87L21,22H23L18.5,10M15.88,17L17.5,12.67L19.12,17H15.88Z" /></svg>
  </defs>
  <defs>
    <svg xmlns="http://www.w3.org/2000/svg" xmlns:xlink="http://www.w3.org/1999/xlink" version="1.1" width="24" height="24" viewBox="0 0 24 24" id="brokerTypes"><path d="M13.5,10A1.5,1.5 0 0,1 12,11.5C11.16,11.5 10.5,10.83 10.5,10A1.5,1.5 0 0,1 12,8.5A1.5,1.5 0 0,1 13.5,10M22,4V16A2,2 0 0,1 20,18H6L2,22V4A2,2 0 0,1 4,2H20A2,2 0 0,1 22,4M16.77,11.32L15.7,10.5C15.71,10.33 15.71,10.16 15.7,10C15.72,9.84 15.72,9.67 15.7,9.5L16.76,8.68C16.85,8.6 16.88,8.47 16.82,8.36L15.82,6.63C15.76,6.5 15.63,6.47 15.5,6.5L14.27,7C14,6.8 13.73,6.63 13.42,6.5L13.23,5.19C13.21,5.08 13.11,5 13,5H11C10.88,5 10.77,5.09 10.75,5.21L10.56,6.53C10.26,6.65 9.97,6.81 9.7,7L8.46,6.5C8.34,6.46 8.21,6.5 8.15,6.61L7.15,8.34C7.09,8.45 7.11,8.58 7.21,8.66L8.27,9.5C8.23,9.82 8.23,10.16 8.27,10.5L7.21,11.32C7.12,11.4 7.09,11.53 7.15,11.64L8.15,13.37C8.21,13.5 8.34,13.53 8.46,13.5L9.7,13C9.96,13.2 10.24,13.37 10.55,13.5L10.74,14.81C10.77,14.93 10.88,15 11,15H13C13.12,15 13.23,14.91 13.25,14.79L13.44,13.47C13.74,13.34 14,13.18 14.28,13L15.53,13.5C15.65,13.5 15.78,13.5 15.84,13.37L16.84,11.64C16.9,11.53 16.87,11.4 16.77,11.32Z" /></svg>
  </defs>
  <defs>
    <svg xmlns="http://www.w3.org/2000/svg" xmlns:xlink="http://www.w3.org/1999/xlink" version="1.1" width="24" height="24" viewBox="0 0 24 24" id="eventTypes"><path d="M19,20H5V9H19M16,2V4H8V2H6V4H5A2,2 0 0,0 3,6V20A2,2 0 0,0 5,22H19A2,2 0 0,0 21,20V6A2,2 0 0,0 19,4H18V2M10.88,13H7.27L10.19,15.11L9.08,18.56L12,16.43L14.92,18.56L13.8,15.12L16.72,13H13.12L12,9.56L10.88,13Z" /></svg>
  </defs>
  <defs>
    <svg xmlns="http://www.w3.org/2000/svg" xmlns:xlink="http://www.w3.org/1999/xlink" version="1.1" width="24" height="24" viewBox="0 0 24 24" id="questionaire"><path d="M19,4H18V2H16V4H8V2H6V4H5A2,2 0 0,0 3,6V20A2,2 0 0,0 5,22H19A2,2 0 0,0 21,20V6A2,2 0 0,0 19,4M19,20H5V10H19V20M5,8V6H19V8H5M7,12H17V14H7V12M7,16H14V18H7V16Z" /></svg>
  </defs>
  <defs>
    <svg xmlns="http://www.w3.org/2000/svg" xmlns:xlink="http://www.w3.org/1999/xlink" version="1.1" width="24" height="24" viewBox="0 0 24 24" id="eventLogAudits"><path d="M7,12H9V14H7V12M21,6V20A2,2 0 0,1 19,22H5C3.89,22 3,21.1 3,20V6A2,2 0 0,1 5,4H6V2H8V4H16V2H18V4H19A2,2 0 0,1 21,6M5,8H19V6H5V8M19,20V10H5V20H19M15,14H17V12H15V14M11,14H13V12H11V14Z" /></svg>
  </defs>
  <defs>
    <svg xmlns="http://www.w3.org/2000/svg" xmlns:xlink="http://www.w3.org/1999/xlink" version="1.1" width="24" height="24" viewBox="0 0 24 24" id="showDetails"><path d="M15.5,12C18,12 20,14 20,16.5C20,17.38 19.75,18.2 19.31,18.9L22.39,22L21,23.39L17.88,20.32C17.19,20.75 16.37,21 15.5,21C13,21 11,19 11,16.5C11,14 13,12 15.5,12M15.5,14A2.5,2.5 0 0,0 13,16.5A2.5,2.5 0 0,0 15.5,19A2.5,2.5 0 0,0 18,16.5A2.5,2.5 0 0,0 15.5,14M19.5,2A0.5,0.5 0 0,1 20,2.5V11.81C19.42,11.26 18.75,10.81 18,10.5V4.7L15,5.86V10C14.3,10.07 13.62,10.24 13,10.5V5.87L9,4.47V16.13H9V16.5C9,17.14 9.09,17.76 9.26,18.34L8,17.9L2.66,19.97L2.5,20A0.5,0.5 0 0,1 2,19.5V4.38C2,4.15 2.15,3.97 2.36,3.9L8,2L14,4.1L19.34,2.03L19.5,2M4,5.46V17.31L7,16.15V4.45L4,5.46Z" /></svg>
  </defs>
  <defs>
    <svg xmlns="http://www.w3.org/2000/svg" xmlns:xlink="http://www.w3.org/1999/xlink" version="1.1" width="24" height="24" viewBox="0 0 24 24" id="editDetails"><path d="M8,12H16V14H8V12M10,20H6V4H13V9H18V12.1L20,10.1V8L14,2H6A2,2 0 0,0 4,4V20A2,2 0 0,0 6,22H10V20M8,18H12.1L13,17.1V16H8V18M20.2,13C20.3,13 20.5,13.1 20.6,13.2L21.9,14.5C22.1,14.7 22.1,15.1 21.9,15.3L20.9,16.3L18.8,14.2L19.8,13.2C19.9,13.1 20,13 20.2,13M20.2,16.9L14.1,23H12V20.9L18.1,14.8L20.2,16.9Z" /></svg>
  </defs>
</svg>
